<?xml version="1.0" standalone="no"?>
<!DOCTYPE svg PUBLIC "-//W3C//DTD SVG 20010904//EN"
 "http://www.w3.org/TR/2001/REC-SVG-20010904/DTD/svg10.dtd">
<svg version="1.0" xmlns="http://www.w3.org/2000/svg"
 width="50.000000pt" height="50.000000pt" viewBox="0 0 50.000000 50.000000"
 preserveAspectRatio="xMidYMid meet">

<g transform="translate(0.000000,50.000000) scale(0.100000,-0.100000)"
fill="#000000" stroke="none">
<path d="M93 489 c-44 -13 -80 -60 -88 -114 -4 -24 -6 -97 -4 -162 4 -129 14
-156 66 -190 23 -15 51 -18 183 -18 170 0 190 6 227 62 27 40 27 326 0 366
-36 55 -59 62 -212 64 -77 1 -154 -2 -172 -8z m331 -65 c26 -26 26 -28 26
-174 0 -146 0 -148 -26 -174 -26 -26 -28 -26 -173 -26 -152 1 -167 4 -189 47
-16 28 -16 273 -1 307 18 38 45 45 195 45 140 1 142 1 168 -25z"/>
<path d="M356 394 c-4 -10 -1 -24 7 -31 19 -19 49 -5 45 21 -4 27 -43 34 -52
10z"/>
<path d="M191 362 c-38 -20 -71 -73 -71 -112 0 -62 68 -130 130 -130 62 0 130
68 130 130 0 62 -68 130 -130 130 -14 0 -41 -8 -59 -18z m116 -54 c51 -48 15
-138 -56 -138 -71 0 -106 76 -60 134 27 34 82 36 116 4z"/>
</g>
</svg>
